<svg id="Layer_1" data-name="Layer 1" xmlns="http://www.w3.org/2000/svg" viewBox="0 0 650 600"><defs><style>.cls-1{fill:#010101;}.cls-2{fill:#fff;}</style></defs><title>2</title><path class="cls-1" d="M226.43,220.42,209.57,199l-4.09-2s-16.87,10.22-33.73,6.13l-4.6,1.53s-14.82,10.22-26.06-1.53l-3.57,1s5.11,18.4-5.11,31.17c0,0-12.27,25-30.15,38.84,0,0,1,9.71,5.62,15.33,0,0,12.71,4.79,25.15,4.71,0,0,6,9.6,4.49,14.71,0,0,32.19,10.16,54.67,5.08,0,0,25-5.59,39.35-41.36C231.54,272.55,239.2,237.29,226.43,220.42ZM196,305.25l-8.94,3.07H151.57L141.35,305s-2.3-9.71-5.62-12.77l-4.86-1.53-20.44-3.84-3.83-11.49s38.84-34.75,36.54-66.18c0,0,10.73,8.43,27.08-2,0,0,21.72,2.81,35.51-5.37l16.35,18.65s7.16,9.2,6.65,26.83l0,21.46S221.36,295.44,196,305.25Z"/><path class="cls-1" d="M156.76,178.52s13,5.11,20.78,4.77l21.12,0s13,0,15.67,7.14l11.93,11.32s4.09,7.07,14.65,4.69c0,0,5.45,1.36,8.51,8.51,0,0,8.86,13.29,19.76,8.52v-3.41l-10.56-1.7-3.75-6.81-6.13-7.5-16.35-2.3L213,181.59l-9.2-3.07h-34.4l-9.54-2Z"/><polygon class="cls-1" points="228.75 224.1 237.84 229.62 251.47 231.67 251.47 234.39 240.11 234.39 233.82 232.69 230.95 229.25 228.75 224.1"/><path class="cls-1" d="M162.55,158.42h17l15,2.73h22.14l12,2,11.36,11.93,11.36,8.51,12.6,5.45h12.61l2.38-8.17L276,183l-4.08,2.73h-9.54l-10.9-9.2L235.8,164.9l-7.05-6.48-11-2.38s-14-1.36-15.33,0-20.44-.61-20.44-.61H168Z"/><polygon class="cls-1" points="108.73 178.18 119.29 165.58 138.03 153.31 155.06 144.12 168.04 142.07 179.59 143.78 193.21 148.89 202.41 152.97 204.75 155.5 199 157.4 190.83 152.29 179.59 147.86 170.39 145.82 156.74 147.86 143.82 155.43 135.3 160.13 123.72 168.3 114.18 178.18 111.11 182.95 91.7 182.95 79.77 196.92 71.94 211.23 69.55 218.72 67.85 245.97 71.6 261.3 78.75 276.29 88.97 286.17 87.27 290.6 75.69 278 65.81 259.26 64.1 230.99 65.47 216.34 71.26 203.39 77.39 193.17 88.63 180.91 93.74 178.18 108.73 178.18"/><polygon class="cls-1" points="110.09 200.5 112.82 201.77 111.45 216.34 106.6 232.35 100.55 240.18 92.04 252.11 88.29 260.28 90.33 269.14 89.65 274.59 83.86 262.67 86.25 255.04 91.02 245.97 99.53 234.39 104.64 224.1 106.6 213.95 108.05 205.09 110.09 200.5"/><polygon class="cls-1" points="89.65 201.77 88.29 205.09 81.82 214.29 78.75 232.01 78.75 261.99 84.2 274.59 89.65 280.72 88.97 286.17 78.75 272.55 75.34 258.92 75.34 231.67 78.07 214.29 82.5 207.14 85.91 201.77 89.65 201.77"/><polygon class="cls-1" points="141.13 309.87 137.51 308.83 134.43 320.58 112.82 321.94 103.96 317.85 100.89 308.31 98.34 290.6 94.42 286.17 94.42 275.95 96.38 272.2 102.26 274.08 104.22 272.5 98.34 269.82 98.34 262.33 94.42 256.13 92.04 256.13 94.42 262.33 94.42 267.78 92.38 269.14 89.65 283.79 94.42 290.6 95.78 298.01 98.34 313.91 103.96 321.94 116.06 328.07 137.7 328.07 141.13 325.35 137.7 321.94 141.13 309.87"/><polygon class="cls-1" points="180.44 268.12 180.44 269.82 184.78 271.01 190.15 268.12 190.15 264.27 187.85 264.27 187.85 266.39 186.31 268.12 183.76 268.12 180.44 268.12"/><polygon class="cls-1" points="194.75 286.17 201.9 286.17 207.78 281.23 209.56 274.59 207.52 274.59 205.99 278.42 203.69 280.38 202.16 282.51 194.75 284.3 194.75 286.17"/><path class="cls-1" d="M87.27,290.6l-7.5,1.5-7.15,7.7-4.43,11.58v16.69l9.54,69.84,2,15.67,9.88,14.65,8.69,9.2,10.39,2.72,16.69-1.36,4.43-5.79,8.52-15,2.76-25.55s1.67-34.75,2-36.11,0-28.28,0-28.28l-2-2.72-3.43,2.72,2,2.73-1.36,27.59v17.72l-1,18.39-1,14-1.89,8.18-4.92,10.56-4.09,6.13-5.79,1.36-13-.34-4.34-.68-7.84-5.45L86.93,416,82.5,405.74,79.77,385l-4.43-26.23L73,331.48l-2-16.15,4.42-9.4,2.39-7.83,6.13-4.43L92,292.1l2.38-1.5-4.77-9.88Z"/><polygon class="cls-1" points="100.41 316.87 98.34 325.43 96.38 334.63 94.85 340 96.13 343.57 98.34 340.51 102.26 330.22 102.26 322.88 103.96 321.94 100.41 316.87"/><path class="cls-1" d="M233.62,256.12l26.7,1.78,8.86,4.26,6.13,2.38,6.48,8,4.08,8.17,10.56,27.6L304.61,325l6.81,16.35,3.86,6.13,1.59,8.86v17.71l-1.59,8.52-5.22,6.81-8.18,9.54-8.51,7.15-12.61,10.57-9.88,3.74h-4.42l2.72-6.13,1.7-9.2-1.7-21.12-2-4.77-4.77-2.72,1.7-14.65,1-9.2H262l-2,7.84-.34,14.3-1,5.11.68,2,4.09,3.75.68,5.1.68,7.84v12.26l-2,9.54-4.09,3.07-2.72,2.72h20.78c1.7,0,7.15-3.06,7.15-3.06l11.58-12.27,12.95-13.28,6.19-7.16,5.05-6.81V346.13l-7.84-15.91-11.24-24.63L290.3,280.72l-6.13-16.18-12.95-8.42-11.92-2.65-12.94-3.75H233.62Z"/><path class="cls-1" d="M259.3,381.9l-4.43,2.72-3.06-1.36-3.75-1.36v7.49L245,392.8l-3.06,1.7H221.15l-4.77-3.4-2.73.68-1.7,7.49v7.5l2.38,8.85,4.09,5.79,7.5,4.77,9.71,2.05s9.36-.34,10.73,0,9.54-2.05,9.54-2.05l6.81-5.79,1.4-6.53L259.3,418l-4.09,4.09-7.83,1H233.82l-7.56-1.36-5.79-2.05-3.75-8.17-2-8.86,2.72-6.82,2.73,1,8.62,1,9.28.34h6.28l6.82-4.77,4.08-4.43h4.43l4.09-.82-.34-2.58Z"/><polygon class="cls-1" points="216.38 391.1 214.68 381.9 211.95 373.72 221.49 373.72 230 373.72 240.11 373.72 249.2 371.28 248.06 381.9 248.06 389.39 244.99 392.8 244.99 381.9 244.99 375.77 240.11 376.79 230 376.79 222.85 376.79 215.7 376.45 218.42 385.64 221.15 394.5 216.38 391.1"/><polyline class="cls-1" points="218 343.57 213.78 350.98 213.78 356.6 215.44 360.44 218 363.5 218 365.55 219.78 365.55 219.78 360.44 216.72 356.6 216.21 352.26 218.51 347.41"/><path class="cls-1" d="M225.66,346.26v4.21l1.55,4.09,1.54,2.3v3.58l1.82,1.53s1.73-4.09,1.48-4.86a55.73,55.73,0,0,0-3.18-4.85l-.12-6,1.82-4"/><path class="cls-1" d="M235.69,329.15c.4,1.27,1,3,1,3.18v10l-2.05,1.27-1,4.6.21,3.07h2.83v-5l2.81-2.69v-9.33"/><polygon class="cls-1" points="521.95 306.61 554.12 329.19 558.4 327.73 522.97 303.55 469.83 315.81 472.42 317.9 521.95 306.61"/><polygon class="cls-1" points="558.4 327.73 554.12 329.19 506.45 345.45 472.42 317.9 472.42 317.9 472.42 317.9 469.83 315.81 442.58 356.01 447.01 401.31 450.75 401.31 446.67 355.33 470 318.88 504.58 348.85 511.39 401.31 515.48 401.31 509.01 349.54 555.34 334.2 561.71 390.03 565.03 389.55 558.4 327.73"/><path class="cls-1" d="M457.06,354.47l1.19,12.78h9V354.47Zm8,10.74h-4.77l-1-9.2h5.79Z"/><path class="cls-1" d="M474.43,354.47h-1.87l.68,11.42h9.37V354.47Zm6.3,9.37h-5.79V356h5.79Z"/><path class="cls-1" d="M459.27,372.7l1,9.88h7V372.7Zm6.47,8h-3.57l-1.37-6.48h4.94Z"/><path class="cls-1" d="M473.24,372.7v9.88h9.37V372.7Zm7.49,8h-5.79v-6.48h5.79Z"/><polygon class="cls-1" points="479.14 316.37 511.45 343.74 514.12 342.83 480.73 315.81 479.14 316.37"/><path class="cls-1" d="M489.94,313.91l30.69,26.7s2.78,0,2.14-.73-31.24-26.33-31.24-26.33Z"/><polygon class="cls-1" points="500.43 311.52 530.32 337.31 532.4 336.6 502.08 311.14 500.43 311.52"/><polygon class="cls-1" points="510.06 309.32 539.33 334.24 541.78 333.4 511.47 309 510.06 309.32"/><polygon class="cls-1" points="516.41 307.87 546.47 331.8 549.53 330.76 517.67 307.59 516.41 307.87"/><polygon class="cls-1" points="262.03 352.6 254.19 340 255.9 336.25 258.11 340 262.03 346.26 265.09 352.6 262.03 352.6"/><polygon class="cls-1" points="527.81 342.44 525.09 342.44 522.7 347.48 525.26 353.86 531.22 356.99 539.39 359.37 541.44 359.37 544.5 371.81 546.55 393.95 548.93 393.95 547.57 369.25 546.55 360.05 552.34 359.37 559.49 355.29 560.86 347.48 557.79 345.05 555.41 345.05 556.43 340.32 554.73 334.86 550.64 334.86 551.66 331.1 548.25 327.26 543.14 327.26 540.08 332.94 536.67 329.05 531.22 329.61 529.52 332.94 529.52 337.47 527.81 342.44"/><polygon class="cls-2" points="526.79 345.05 525.09 349.15 528.84 353.86 533.6 355.29 543.14 356.99 550.98 356.99 555.75 355.29 557.79 351.02 557.79 347.48 553.36 347.48 553.36 345.05 554.73 340.32 553.02 337.47 547.91 337.47 549.96 332.94 547.57 329.61 543.48 329.61 542.8 332.94 541.44 334.86 539.05 334.86 536.67 331.44 533.26 331.1 531.22 332.94 531.56 340.32 530.54 343.3 526.79 345.05"/><polygon class="cls-1" points="424.69 305.25 432.36 309 434.4 311.14 430.65 311.14 423.16 309 421.12 305.25 424.69 305.25"/><polygon class="cls-1" points="474.94 268.46 474.94 276.63 477.58 280.72 479.14 280.72 479.14 274.59 477.92 268.46 474.94 268.46"/><polygon class="cls-1" points="541.78 262.67 539.67 274.59 541.78 274.59 544.78 264.71 544.78 260.96 541.78 262.67"/><polygon class="cls-1" points="588.83 285.77 580.83 293.05 579.58 295.89 582.71 296.69 590.59 289.21 591.52 285.57 588.83 285.77"/><polygon class="cls-1" points="606.1 331.8 593.83 334.24 591.52 336.25 596.06 337.31 607.37 334.88 610.18 331.8 606.1 331.8"/><polygon class="cls-1" points="191.7 225.88 191.7 231.03 189.91 236.18 186.33 239.33 181.48 240.6 175.6 240.6 175.6 242.9 183.01 242.9 187.87 241.37 191.7 239.33 194 234.39 195.02 231.03 194 225.88 191.7 225.88"/><polygon class="cls-1" points="160.64 252.59 160.3 257.73 158.16 262.74 154.38 265.65 149.46 266.59 143.59 266.2 143.44 268.49 150.83 268.99 155.78 267.79 159.74 266.01 162.36 261.24 163.61 257.95 162.94 252.75 160.64 252.59"/></svg>