<svg xmlns="http://www.w3.org/2000/svg" viewBox="0 0 650 600"><defs><style>.cls-1{fill:#864948;}.cls-2{opacity:0.5;}.cls-3{font-size:40px;font-family:Neucha;}.cls-4{letter-spacing:-0.02em;}</style></defs><title>2</title><g id="Layer_3" data-name="Layer 3"><polygon class="cls-1" points="250 264 250 458 274 458 312 456 314 348 329 346 329 261 250 264"/><rect class="cls-2" x="248" y="502" width="222" height="10"/></g><g id="Layer_1" data-name="Layer 1"><path d="M479.63,181.06c-2.18-2.55,0-21.11,0-21.11l-2.18-36.76H422.86l-49.5-2.55s-59-2.18-60.05-2.18-28.39-1.82-28.39-1.82H237.61l.72,24.38-3.64,65.15v59l4.74.73,3.64-1.82,236.2,3.64,4-2.19,1.46-7.64v-7.64C484.73,248.75,481.82,183.61,479.63,181.06Zm-69.51,80.43L240.52,256l4-131.38h46.22l49.5,2.18,46.95,1.82,46.22,1.46h38.94l2.19,40.76,2.91,90.62Z"/><path d="M468.71,300.43V267.68l-5.81-.1.72,30.31v105.9l1.45,10.92v38.94H252.89V407.8l1.82-2.91-1.82-137.21v-3.49l-4.36-.07V462.75l39.3,1.82H314.4s45.13-3.64,47-3.64,25.47.73,25.47.73h54.6l29.48-.73V316.45Z"/><path d="M479.63,181.06c-2.18-2.55,0-21.11,0-21.11l-2.18-36.76H422.86l-49.5-2.55s-59-2.18-60.05-2.18-28.39-1.82-28.39-1.82H237.61l.72,24.38-3.64,65.15v59l4.74.73,3.64-1.82,236.2,3.64,4-2.19,1.46-7.64v-7.64C484.73,248.75,481.82,183.61,479.63,181.06Zm-69.51,80.43L240.52,256l4-131.38h46.22l49.5,2.18,46.95,1.82,46.22,1.46h38.94l2.19,40.76,2.91,90.62Z"/><path d="M468.71,300.43V267.68l-5.81-.1.72,30.31v105.9l1.45,10.92v38.94H252.89V407.8l1.82-2.91-1.82-137.21v-3.49l-4.36-.07V462.75l39.3,1.82H314.4s45.13-3.64,47-3.64,25.47.73,25.47.73h54.6l29.48-.73V316.45Z"/><polygon points="349.33 288.06 352.6 288.06 358.06 365.94 361.7 436.55 361.7 443.46 363.88 443.46 364 458 358 459 351.51 308.07 349.33 288.06"/><polygon points="323.85 290.24 327.49 290.24 329.67 381.95 329.67 388.5 331 459 326.03 462.75 325.67 368.35 323.85 302.98 323.85 290.24"/><polygon points="327.49 312.8 351.72 312.8 351.72 310.26 344.59 310.26 327.96 310.26 327.49 312.8"/><polygon points="328.3 324.08 339.6 324.08 352.22 324.08 353.38 329.42 333.68 326.63 327.49 326.63 328.3 324.08"/><polygon points="328.82 346.29 342.41 346.29 345.69 346.29 353.2 346.29 353.38 350.3 328.87 348.3 328.82 346.29"/><polygon points="329.26 364.85 354.02 364.85 354.18 368.35 343.69 368.35 333.86 368.35 329.35 368.35 329.26 364.85"/><polygon points="329.67 386.14 354.93 385.24 354.93 388.87 329.67 388.5 329.67 386.14"/><polygon points="329.96 403.61 355.74 403.61 355.82 405.43 330 405.43 329.96 403.61"/><polygon points="329.96 429.63 356.85 428.74 356.85 431.63 341.1 431.63 330.52 432.36 329.96 429.63"/><text class="cls-3" transform="translate(514 518.51)"><tspan class="cls-4">2</tspan><tspan x="16.84" y="0">7%</tspan></text><rect x="248" y="502" width="66" height="10"/><path d="M479.63,181.06c-2.18-2.55,0-21.11,0-21.11l-2.18-36.76H422.86l-49.5-2.55s-59-2.18-60.05-2.18-28.39-1.82-28.39-1.82H237.61l.72,24.38-3.64,65.15v59l4.74.73,3.64-1.82,236.2,3.64,4-2.19,1.46-7.64v-7.64C484.73,248.75,481.82,183.61,479.63,181.06Zm-69.51,80.43L240.52,256l4-131.38h46.22l49.5,2.18,46.95,1.82,46.22,1.46h38.94l2.19,40.76,2.91,90.62Z"/><path d="M468.71,300.43V267.68l-5.81-.1.72,30.31v105.9l1.45,10.92v38.94H252.89V407.8l1.82-2.91-1.82-137.21v-3.49l-4.36-.07V462.75l39.3,1.82H314.4s45.13-3.64,47-3.64,25.47.73,25.47.73h54.6l29.48-.73V316.45Z"/><path d="M479.63,181.06c-2.18-2.55,0-21.11,0-21.11l-2.18-36.76H422.86l-49.5-2.55s-59-2.18-60.05-2.18-28.39-1.82-28.39-1.82H237.61l.72,24.38-3.64,65.15v59l4.74.73,3.64-1.82,236.2,3.64,4-2.19,1.46-7.64v-7.64C484.73,248.75,481.82,183.61,479.63,181.06Zm-69.51,80.43L240.52,256l4-131.38h46.22l49.5,2.18,46.95,1.82,46.22,1.46h38.94l2.19,40.76,2.91,90.62Z"/><path d="M468.71,300.43V267.68l-5.81-.1.72,30.31v105.9l1.45,10.92v38.94H252.89V407.8l1.82-2.91-1.82-137.21v-3.49l-4.36-.07V462.75l39.3,1.82H314.4s45.13-3.64,47-3.64,25.47.73,25.47.73h54.6l29.48-.73V316.45Z"/><polygon points="349.33 288.06 352.6 288.06 358.06 365.94 361.7 436.55 361.7 443.46 363.88 443.46 364 458 358 459 351.51 308.07 349.33 288.06"/><polygon points="323.85 290.24 327.49 290.24 329.67 381.95 329.67 388.5 331 459 326.03 462.75 325.67 368.35 323.85 302.98 323.85 290.24"/><polygon points="327.49 312.8 351.72 312.8 351.72 310.26 344.59 310.26 327.96 310.26 327.49 312.8"/><polygon points="328.3 324.08 339.6 324.08 352.22 324.08 353.38 329.42 333.68 326.63 327.49 326.63 328.3 324.08"/><polygon points="328.82 346.29 342.41 346.29 345.69 346.29 353.2 346.29 353.38 350.3 328.87 348.3 328.82 346.29"/><polygon points="329.26 364.85 354.02 364.85 354.18 368.35 343.69 368.35 333.86 368.35 329.35 368.35 329.26 364.85"/><polygon points="329.67 386.14 354.93 385.24 354.93 388.87 329.67 388.5 329.67 386.14"/><polygon points="329.96 403.61 355.74 403.61 355.82 405.43 330 405.43 329.96 403.61"/><polygon points="329.96 429.63 356.85 428.74 356.85 431.63 341.1 431.63 330.52 432.36 329.96 429.63"/><text class="cls-3" transform="translate(514 518.51)"><tspan class="cls-4">2</tspan><tspan x="16.84" y="0">7%</tspan></text><rect class="cls-1" x="248" y="502" width="66" height="10"/></g><g id="Layer_2" data-name="Layer 2"><path d="M341.77,385.62l-.42-3.71,1.49-.9,1.78-4.11-.63-3-1.8-2.81L339.76,370l-2.91.17L335,372.61l-.61,5.36,1.82,3.14,2.42,1,.68,3.71m.55-.78-7-4-9-6v-1l1-2v-3l-4-1v5l1,1v3h1v-2l9,7,6,6,3.72,17-.19,6.92-.53,8.1.76,8.94,3.24.06-2-4-.43-7.2.63-5.38.2,5.93,1.6,6.65,1,5h2l-2-9-.28-7.28-.73-8.37-1-10.35v-8l6.73,8,6.83,7.23,1.59-1.5-7.28-7.37L344.85,385h-2"/><path class="cls-2" d="M363.08,264.59V284l1.36,9.56V453.65h3s.55-38.94,0-39.76-2.06-29.2-2.06-29.2,2.28-96.36,2.31-97.45,0-22.18,0-22.18Z"/><polygon class="cls-2" points="378.37 266.21 378.37 353.84 377 369.67 378.37 453.65 380.82 453.65 380.82 266.21 378.37 266.21"/><polygon class="cls-2" points="397.48 454.23 395.3 423.96 395.3 389.75 396.19 319.88 396.39 304.22 396.39 265.64 395.3 265.64 393.12 367.55 393.12 397.75 394.03 448.71 393.12 454.23 397.48 454.23"/><polygon class="cls-2" points="410.1 265.64 412.28 295.91 412.28 330.12 411.39 399.99 411.19 415.65 411.19 454.23 412.28 454.23 414.46 352.32 414.46 322.12 413.55 271.16 414.46 265.64 410.1 265.64"/><polygon class="cls-2" points="432.68 454.23 430.5 423.96 430.5 389.75 431.39 319.88 431.59 304.22 431.59 265.64 430.5 265.64 428.31 367.55 428.31 397.75 429.23 448.71 428.31 454.23 432.68 454.23"/><polygon class="cls-2" points="447.14 453.65 447.14 366.03 448.51 350.2 447.14 266.21 444.69 266.21 444.69 453.65 447.14 453.65"/><path class="cls-2" d="M363.08,264.59V284l1.36,9.56V453.65h3s.55-38.94,0-39.76-2.06-29.2-2.06-29.2,2.28-96.36,2.31-97.45,0-22.18,0-22.18Z"/><polygon class="cls-2" points="378.37 266.21 378.37 353.84 377 369.67 378.37 453.65 380.82 453.65 380.82 266.21 378.37 266.21"/><polygon class="cls-2" points="397.48 454.23 395.3 423.96 395.3 389.75 396.19 319.88 396.39 304.22 396.39 265.64 395.3 265.64 393.12 367.55 393.12 397.75 394.03 448.71 393.12 454.23 397.48 454.23"/><polygon class="cls-2" points="410.1 265.64 412.28 295.91 412.28 330.12 411.39 399.99 411.19 415.65 411.19 454.23 412.28 454.23 414.46 352.32 414.46 322.12 413.55 271.16 414.46 265.64 410.1 265.64"/><polygon class="cls-2" points="432.68 454.23 430.5 423.96 430.5 389.75 431.39 319.88 431.59 304.22 431.59 265.64 430.5 265.64 428.31 367.55 428.31 397.75 429.23 448.71 428.31 454.23 432.68 454.23"/><polygon class="cls-2" points="447.14 453.65 447.14 366.03 448.51 350.2 447.14 266.21 444.69 266.21 444.69 453.65 447.14 453.65"/><polygon class="cls-2" points="297.75 453.18 295.56 422.91 295.56 388.7 296.46 318.83 296.66 303.17 296.66 264.59 295.56 264.59 293.38 366.5 293.38 396.71 294.3 447.66 293.38 453.18 297.75 453.18"/><polygon class="cls-2" points="331.54 453.65 331.54 441.36 329.71 420.62 329.71 417.71 329.71 362.39 329.71 264.12 326.44 264.12 326.44 372.94 326.44 411.88 326.44 430.08 326.44 453.18 331.54 453.65"/><polygon class="cls-2" points="309.67 265.06 311.85 295.34 311.85 329.55 310.96 399.42 310.76 415.08 310.76 453.65 311.85 453.65 314.04 351.75 314.04 321.54 313.12 270.59 314.04 265.06 309.67 265.06"/><polygon class="cls-2" points="271.82 264.12 271.82 276.41 273.64 297.16 273.64 300.07 273.64 355.39 273.64 453.65 276.91 453.65 276.91 344.83 276.91 305.89 276.91 287.69 276.91 264.6 271.82 264.12"/></g></svg>