<svg xmlns="http://www.w3.org/2000/svg" viewBox="0 0 650 600"><defs><style>.cls-1{fill:#864948;}.cls-2{font-size:40px;font-family:Neucha;}.cls-3{letter-spacing:-0.04em;}.cls-4{opacity:0.5;}</style></defs><title>5</title><g id="Layer_3" data-name="Layer 3"><polygon class="cls-1" points="467 458 249 458 249 256 467 261 467 458"/></g><g id="Layer_1" data-name="Layer 1"><path d="M479.63,181.06c-2.18-2.55,0-21.11,0-21.11l-2.18-36.76H422.86l-49.5-2.55s-59-2.18-60.05-2.18-28.39-1.82-28.39-1.82H237.61l.72,24.38-3.64,65.15v59l4.74.73,3.64-1.82,236.2,3.64,4-2.19,1.46-7.64v-7.64C484.73,248.75,481.82,183.61,479.63,181.06Zm-69.51,80.43L240.52,256l4-131.38h46.22l49.5,2.18,46.95,1.82,46.22,1.46h38.94l2.19,40.76,2.91,90.62Z"/><path d="M524.45,442.61l-.19-6.92,4.73-4,3.28-5.64-7.64-9.65-2.66-1,.47-3.74,2.37-1.09,1.64-3.23-.91-5.32-2-2.37h-2.92l-2.36,1.28-1.64,2.9-.45,3,2,4,1.54.82-.21,3.73-1.79,1.46-3.45,8.46v4.55l6.73,6.19-.73,8.37-5.09,10.73v2.48l2,.62,1-2.8,2.57-6.28,2-6,3.69,5.62,2.36,4.18,2.55,5.28h2l1.64-1.09Zm-6.28-11.92-2.1-2.82v-3.19l2.64-5.91,1,.73.64,13.37Zm5.37-11.56,2,1.37a28.22,28.22,0,0,0,2.18,3.09,10.12,10.12,0,0,1,1.09,2.23s-1.27,3.32-1.45,3.6-1.55,2.18-1.55,2.18L524,433.51Z"/><text class="cls-2" transform="translate(513.75 518.51)"> <tspan class="cls-3" x="11.2" y="0">1</tspan><tspan x="26.08" y="0">00%</tspan></text><rect x="248" y="502" width="222" height="10"/><path d="M479.63,181.06c-2.18-2.55,0-21.11,0-21.11l-2.18-36.76H422.86l-49.5-2.55s-59-2.18-60.05-2.18-28.39-1.82-28.39-1.82H237.61l.72,24.38-3.64,65.15v59l4.74.73,3.64-1.82,236.2,3.64,4-2.19,1.46-7.64v-7.64C484.73,248.75,481.82,183.61,479.63,181.06Zm-69.51,80.43L240.52,256l4-131.38h46.22l49.5,2.18,46.95,1.82,46.22,1.46h38.94l2.19,40.76,2.91,90.62Z"/><path d="M524.45,442.61l-.19-6.92,4.73-4,3.28-5.64-7.64-9.65-2.66-1,.47-3.74,2.37-1.09,1.64-3.23-.91-5.32-2-2.37h-2.92l-2.36,1.28-1.64,2.9-.45,3,2,4,1.54.82-.21,3.73-1.79,1.46-3.45,8.46v4.55l6.73,6.19-.73,8.37-5.09,10.73v2.48l2,.62,1-2.8,2.57-6.28,2-6,3.69,5.62,2.36,4.18,2.55,5.28h2l1.64-1.09Zm-6.28-11.92-2.1-2.82v-3.19l2.64-5.91,1,.73.64,13.37Zm5.37-11.56,2,1.37a28.22,28.22,0,0,0,2.18,3.09,10.12,10.12,0,0,1,1.09,2.23s-1.27,3.32-1.45,3.6-1.55,2.18-1.55,2.18L524,433.51Z"/><text class="cls-2" transform="translate(513.75 518.51)"> <tspan class="cls-3" x="11.2" y="0">1</tspan><tspan x="26.08" y="0">00%</tspan></text><rect class="cls-1" x="248" y="502" width="222" height="10"/></g><g id="Layer_2" data-name="Layer 2"><path d="M468.71,300.43V267.68l-5.81-.1.72,30.31v105.9l1.45,10.92v38.94H252.89V407.8l1.82-2.91-1.82-137.21v-3.49l-4.36-.07V462.75l39.3,1.82H314.4s45.13-3.64,47-3.64,25.47.73,25.47.73h54.6l29.48-.73V316.45Z"/><polygon class="cls-4" points="271.82 264.12 271.82 276.41 273.64 297.16 273.64 300.07 273.64 355.39 273.64 453.65 276.91 453.65 276.91 344.83 276.91 305.89 276.91 287.69 276.91 264.6 271.82 264.12"/><polygon class="cls-4" points="309.67 265.06 311.85 295.34 311.85 329.55 310.96 399.42 310.76 415.08 310.76 453.65 311.85 453.65 314.04 351.75 314.04 321.54 313.12 270.59 314.04 265.06 309.67 265.06"/><polygon class="cls-4" points="331.54 453.65 331.54 441.36 329.71 420.62 329.71 417.71 329.71 362.39 329.71 264.12 326.44 264.12 326.44 372.94 326.44 411.88 326.44 430.08 326.44 453.18 331.54 453.65"/><path class="cls-4" d="M363.08,264.59V284l1.36,9.56V453.65h3s.55-38.94,0-39.76-2.06-29.2-2.06-29.2,2.28-96.36,2.31-97.45,0-22.18,0-22.18Z"/><polygon class="cls-4" points="378.37 266.21 378.37 353.84 377 369.67 378.37 453.65 380.82 453.65 380.82 266.21 378.37 266.21"/><polygon class="cls-4" points="347.88 454.23 345.7 423.96 345.7 389.75 346.59 319.88 346.79 304.22 346.79 265.64 345.7 265.64 343.52 367.55 343.52 397.75 344.43 448.71 343.52 454.23 347.88 454.23"/><polygon class="cls-4" points="397.48 454.23 395.3 423.96 395.3 389.75 396.19 319.88 396.39 304.22 396.39 265.64 395.3 265.64 393.12 367.55 393.12 397.75 394.03 448.71 393.12 454.23 397.48 454.23"/><polygon class="cls-4" points="410.1 265.64 412.28 295.91 412.28 330.12 411.39 399.99 411.19 415.65 411.19 454.23 412.28 454.23 414.46 352.32 414.46 322.12 413.55 271.16 414.46 265.64 410.1 265.64"/><polygon class="cls-4" points="432.68 454.23 430.5 423.96 430.5 389.75 431.39 319.88 431.59 304.22 431.59 265.64 430.5 265.64 428.31 367.55 428.31 397.75 429.23 448.71 428.31 454.23 432.68 454.23"/><polygon class="cls-4" points="447.14 453.65 447.14 366.03 448.51 350.2 447.14 266.21 444.69 266.21 444.69 453.65 447.14 453.65"/><polygon class="cls-4" points="297.75 455.18 295.56 424.91 295.56 390.7 296.46 320.83 296.66 305.17 296.66 266.59 295.56 266.59 293.38 368.5 293.38 398.71 294.3 449.66 293.38 455.18 297.75 455.18"/></g></svg>