<svg xmlns="http://www.w3.org/2000/svg" viewBox="0 0 650 600"><defs><style>.cls-1{fill:#864948;}.cls-2{opacity:0.5;}.cls-3{font-size:40px;font-family:Neucha;}.cls-4{letter-spacing:-0.06em;}</style></defs><title>4</title><g id="Layer_3" data-name="Layer 3"><polygon class="cls-1" points="250 264 250 458 274 458 430 458 432 273 467 271 467 265 250 264"/><rect class="cls-2" x="248" y="502" width="222" height="10"/></g><g id="Layer_1" data-name="Layer 1"><path d="M479.63,181.06c-2.18-2.55,0-21.11,0-21.11l-2.18-36.76H422.86l-49.5-2.55s-59-2.18-60.05-2.18-28.39-1.82-28.39-1.82H237.61l.72,24.38-3.64,65.15v59l4.74.73,3.64-1.82,236.2,3.64,4-2.19,1.46-7.64v-7.64C484.73,248.75,481.82,183.61,479.63,181.06Zm-69.51,80.43L240.52,256l4-131.38h46.22l49.5,2.18,46.95,1.82,46.22,1.46h38.94l2.19,40.76,2.91,90.62Z"/><path d="M468.71,300.43V267.68l-5.81-.1.72,30.31v105.9l1.45,10.92v38.94H252.89V407.8l1.82-2.91-1.82-137.21v-3.49l-4.36-.07V462.75l39.3,1.82H314.4s45.13-3.64,47-3.64,25.47.73,25.47.73h54.6l29.48-.73V316.45Z"/><path d="M479.63,181.06c-2.18-2.55,0-21.11,0-21.11l-2.18-36.76H422.86l-49.5-2.55s-59-2.18-60.05-2.18-28.39-1.82-28.39-1.82H237.61l.72,24.38-3.64,65.15v59l4.74.73,3.64-1.82,236.2,3.64,4-2.19,1.46-7.64v-7.64C484.73,248.75,481.82,183.61,479.63,181.06Zm-69.51,80.43L240.52,256l4-131.38h46.22l49.5,2.18,46.95,1.82,46.22,1.46h38.94l2.19,40.76,2.91,90.62Z"/><path d="M468.71,300.43V267.68l-5.81-.1.72,30.31v105.9l1.45,10.92v38.94H252.89V407.8l1.82-2.91-1.82-137.21v-3.49l-4.36-.07V462.75l39.3,1.82H314.4s45.13-3.64,47-3.64,25.47.73,25.47.73h54.6l29.48-.73V316.45Z"/><polygon points="452.33 288.06 455.6 288.06 461.06 365.94 464.7 436.55 464.7 443.46 466.88 443.46 467 458 461 459 454.51 308.07 452.33 288.06"/><polygon points="426.85 290.24 430.49 290.24 432.67 381.95 432.67 388.5 434 459 429.03 462.75 428.67 368.35 426.85 302.98 426.85 290.24"/><polygon points="430.49 312.8 454.72 312.8 454.72 310.26 447.59 310.26 430.96 310.26 430.49 312.8"/><polygon points="431.3 324.08 442.6 324.08 455.22 324.08 456.38 329.42 436.68 326.63 430.49 326.63 431.3 324.08"/><polygon points="431.82 346.29 445.41 346.29 448.69 346.29 456.2 346.29 456.38 350.3 431.87 348.3 431.82 346.29"/><polygon points="432.26 364.85 457.02 364.85 457.18 368.35 446.69 368.35 436.86 368.35 432.35 368.35 432.26 364.85"/><polygon points="432.67 386.14 457.93 385.24 457.93 388.87 432.67 388.5 432.67 386.14"/><polygon points="432.96 403.61 458.74 403.61 458.82 405.43 433 405.43 432.96 403.61"/><polygon points="432.96 429.63 459.85 428.74 459.85 431.63 444.1 431.63 433.52 432.36 432.96 429.63"/><text class="cls-3" transform="translate(514 518.51)"><tspan class="cls-4">9</tspan><tspan x="15.6" y="0">1%</tspan></text><rect x="248" y="502" width="188" height="10"/><path d="M441.35,306.44l-.71,8.15.57,8.63.53,6.76h2.62l-.65-4.23-.81-6.65.19-5.77.62,5.24,1.35,5.71.27,5.27,2.52.43-.53-3.17-2.6-14-.18-6.73L444,290.57l2.13-2.48,8.86-6.74.35,2.31h.89l.17-6.56,1.07-1.06V272l-4.79-.18v3.55l2.31,2.12v2.66l-10.11,7.19-2.58-1,.46-3.64,2.3-1.07,1.6-3.15-.89-5.18-1.95-2.3H441l-2.31,1.24-1.59,2.83-.44,2.93,1.94,3.9,1.51.8-.21,3.63-1.74,1.42-3.51,7L427.56,302l1.55,1.46,6.65-7.05,3.72-6.42.53,6.69Z"/><path d="M479.63,181.06c-2.18-2.55,0-21.11,0-21.11l-2.18-36.76H422.86l-49.5-2.55s-59-2.18-60.05-2.18-28.39-1.82-28.39-1.82H237.61l.72,24.38-3.64,65.15v59l4.74.73,3.64-1.82,236.2,3.64,4-2.19,1.46-7.64v-7.64C484.73,248.75,481.82,183.61,479.63,181.06Zm-69.51,80.43L240.52,256l4-131.38h46.22l49.5,2.18,46.95,1.82,46.22,1.46h38.94l2.19,40.76,2.91,90.62Z"/><path d="M468.71,300.43V267.68l-5.81-.1.72,30.31v105.9l1.45,10.92v38.94H252.89V407.8l1.82-2.91-1.82-137.21v-3.49l-4.36-.07V462.75l39.3,1.82H314.4s45.13-3.64,47-3.64,25.47.73,25.47.73h54.6l29.48-.73V316.45Z"/><path d="M479.63,181.06c-2.18-2.55,0-21.11,0-21.11l-2.18-36.76H422.86l-49.5-2.55s-59-2.18-60.05-2.18-28.39-1.82-28.39-1.82H237.61l.72,24.38-3.64,65.15v59l4.74.73,3.64-1.82,236.2,3.64,4-2.19,1.46-7.64v-7.64C484.73,248.75,481.82,183.61,479.63,181.06Zm-69.51,80.43L240.52,256l4-131.38h46.22l49.5,2.18,46.95,1.82,46.22,1.46h38.94l2.19,40.76,2.91,90.62Z"/><path d="M468.71,300.43V267.68l-5.81-.1.72,30.31v105.9l1.45,10.92v38.94H252.89V407.8l1.82-2.91-1.82-137.21v-3.49l-4.36-.07V462.75l39.3,1.82H314.4s45.13-3.64,47-3.64,25.47.73,25.47.73h54.6l29.48-.73V316.45Z"/><polygon points="452.33 288.06 455.6 288.06 461.06 365.94 464.7 436.55 464.7 443.46 466.88 443.46 467 458 461 459 454.51 308.07 452.33 288.06"/><polygon points="426.85 290.24 430.49 290.24 432.67 381.95 432.67 388.5 434 459 429.03 462.75 428.67 368.35 426.85 302.98 426.85 290.24"/><polygon points="430.49 312.8 454.72 312.8 454.72 310.26 447.59 310.26 430.96 310.26 430.49 312.8"/><polygon points="431.3 324.08 442.6 324.08 455.22 324.08 456.38 329.42 436.68 326.63 430.49 326.63 431.3 324.08"/><polygon points="431.82 346.29 445.41 346.29 448.69 346.29 456.2 346.29 456.38 350.3 431.87 348.3 431.82 346.29"/><polygon points="432.26 364.85 457.02 364.85 457.18 368.35 446.69 368.35 436.86 368.35 432.35 368.35 432.26 364.85"/><polygon points="432.67 386.14 457.93 385.24 457.93 388.87 432.67 388.5 432.67 386.14"/><polygon points="432.96 403.61 458.74 403.61 458.82 405.43 433 405.43 432.96 403.61"/><polygon points="432.96 429.63 459.85 428.74 459.85 431.63 444.1 431.63 433.52 432.36 432.96 429.63"/><text class="cls-3" transform="translate(514 518.51)"><tspan class="cls-4">9</tspan><tspan x="15.6" y="0">1%</tspan></text><rect class="cls-1" x="248" y="502" width="188" height="10"/><path d="M441.35,306.44l-.71,8.15.57,8.63.53,6.76h2.62l-.65-4.23-.81-6.65.19-5.77.62,5.24,1.35,5.71.27,5.27,2.52.43-.53-3.17-2.6-14-.18-6.73L444,290.57l2.13-2.48,8.86-6.74.35,2.31h.89l.17-6.56,1.07-1.06V272l-4.79-.18v3.55l2.31,2.12v2.66l-10.11,7.19-2.58-1,.46-3.64,2.3-1.07,1.6-3.15-.89-5.18-1.95-2.3H441l-2.31,1.24-1.59,2.83-.44,2.93,1.94,3.9,1.51.8-.21,3.63-1.74,1.42-3.51,7L427.56,302l1.55,1.46,6.65-7.05,3.72-6.42.53,6.69Z"/></g><g id="Layer_2" data-name="Layer 2"><polygon class="cls-2" points="297.75 453.18 295.56 422.91 295.56 388.7 296.46 318.83 296.66 303.17 296.66 264.59 295.56 264.59 293.38 366.5 293.38 396.71 294.3 447.66 293.38 453.18 297.75 453.18"/><polygon class="cls-2" points="349.88 453.23 347.7 422.96 347.7 388.75 348.59 318.88 348.79 303.22 348.79 264.64 347.7 264.64 345.52 366.55 345.52 396.75 346.43 447.71 345.52 453.23 349.88 453.23"/><polygon class="cls-2" points="309.67 265.06 311.85 295.34 311.85 329.55 310.96 399.42 310.76 415.08 310.76 453.65 311.85 453.65 314.04 351.75 314.04 321.54 313.12 270.59 314.04 265.06 309.67 265.06"/><polygon class="cls-2" points="271.82 264.12 271.82 276.41 273.64 297.16 273.64 300.07 273.64 355.39 273.64 453.65 276.91 453.65 276.91 344.83 276.91 305.89 276.91 287.69 276.91 264.6 271.82 264.12"/><polygon class="cls-2" points="331.54 453.65 331.54 441.36 329.71 420.62 329.71 417.71 329.71 362.39 329.71 264.12 326.44 264.12 326.44 372.94 326.44 411.88 326.44 430.08 326.44 453.18 331.54 453.65"/><path class="cls-2" d="M363.08,264.59V284l1.36,9.56V453.65h3s.55-38.94,0-39.76-2.06-29.2-2.06-29.2,2.28-96.36,2.31-97.45,0-22.18,0-22.18Z"/><polygon class="cls-2" points="378.37 266.21 378.37 353.84 377 369.67 378.37 453.65 380.82 453.65 380.82 266.21 378.37 266.21"/><polygon class="cls-2" points="397.48 454.23 395.3 423.96 395.3 389.75 396.19 319.88 396.39 304.22 396.39 265.64 395.3 265.64 393.12 367.55 393.12 397.75 394.03 448.71 393.12 454.23 397.48 454.23"/><polygon class="cls-2" points="410.1 265.64 412.28 295.91 412.28 330.12 411.39 399.99 411.19 415.65 411.19 454.23 412.28 454.23 414.46 352.32 414.46 322.12 413.55 271.16 414.46 265.64 410.1 265.64"/><polygon class="cls-2" points="432.68 454.23 430.5 423.96 430.5 389.75 431.39 319.88 431.59 304.22 431.59 265.64 430.5 265.64 428.31 367.55 428.31 397.75 429.23 448.71 428.31 454.23 432.68 454.23"/></g></svg>