<svg xmlns="http://www.w3.org/2000/svg" viewBox="0 0 650 600"><defs><style>.cls-1{font-size:40px;font-family:Neucha;}.cls-2{letter-spacing:-0.02em;}.cls-3{letter-spacing:-0.02em;}.cls-4{opacity:0.5;}</style></defs><title>1</title><g id="Layer_1" data-name="Layer 1"><path d="M479.63,181.06c-2.18-2.55,0-21.11,0-21.11l-2.18-36.76H422.86l-49.5-2.55s-59-2.18-60.05-2.18-28.39-1.82-28.39-1.82H237.61l.72,24.38-3.64,65.15v59l4.74.73,3.64-1.82,236.2,3.64,4-2.19,1.46-7.64v-7.64C484.73,248.75,481.82,183.61,479.63,181.06Zm-69.51,80.43L240.52,256l4-131.38h46.22l49.5,2.18,46.95,1.82,46.22,1.46h38.94l2.19,40.76,2.91,90.62Z"/><path d="M468.71,300.43V267.68l-5.81-.1.72,30.31v105.9l1.45,10.92v38.94H252.89V407.8l1.82-2.91-1.82-137.21v-3.49l-4.36-.07V462.75l39.3,1.82H314.4s45.13-3.64,47-3.64,25.47.73,25.47.73h54.6l29.48-.73V316.45Z"/><polygon points="306.33 288.06 309.6 288.06 315.06 365.94 318.7 436.55 318.7 443.46 320.88 443.46 320.88 464.21 315.42 464.21 308.51 308.07 306.33 288.06"/><polygon points="280.85 290.24 284.49 290.24 286.67 381.95 286.67 388.5 288.13 464.21 283.03 462.75 282.67 368.35 280.85 302.98 280.85 290.24"/><polygon points="284.49 312.8 308.72 312.8 308.72 310.26 301.59 310.26 284.96 310.26 284.49 312.8"/><polygon points="285.3 324.08 296.6 324.08 309.22 324.08 310.38 329.42 290.68 326.63 284.49 326.63 285.3 324.08"/><polygon points="285.82 346.29 299.41 346.29 302.69 346.29 310.2 346.29 310.38 350.3 285.87 348.3 285.82 346.29"/><polygon points="286.26 364.85 311.02 364.85 311.18 368.35 300.69 368.35 290.86 368.35 286.35 368.35 286.26 364.85"/><polygon points="286.67 386.14 311.93 385.24 311.93 388.87 286.67 388.5 286.67 386.14"/><polygon points="286.96 403.61 312.74 403.61 312.82 405.43 287 405.43 286.96 403.61"/><polygon points="286.96 429.63 313.85 428.74 313.85 431.63 298.1 431.63 287.52 432.36 286.96 429.63"/><path d="M194.45,442.61l-.19-6.92,4.73-4,3.28-5.64-7.64-9.65-2.66-1,.47-3.74,2.37-1.09,1.64-3.23-.91-5.32-2-2.37h-2.92l-2.36,1.28-1.64,2.9-.45,3,2,4,1.54.82-.21,3.73-1.79,1.46-3.45,8.46v4.55l6.73,6.19-.73,8.37-5.09,10.73v2.48l2,.62,1-2.8,2.57-6.28,2-6,3.69,5.62,2.36,4.18,2.55,5.28h2l1.64-1.09Zm-6.28-11.92-2.1-2.82v-3.19l2.64-5.91,1,.73.64,13.37Zm5.37-11.56,2,1.37a28.22,28.22,0,0,0,2.18,3.09,10.12,10.12,0,0,1,1.09,2.23s-1.27,3.32-1.45,3.6-1.55,2.18-1.55,2.18L194,433.51Z"/><path d="M100.46,346.07s11.87,38.9,59.68,48.65l-4.68-8.38,3.27-2.19,12.56,13.65-2.18,3.28-18.56,5.45-1.64-4.36,8.73-3.82S106.33,384.7,98.14,354l-1.23-7Z"/><polygon points="214.8 273.6 266.12 305.81 263.39 296.52 266.12 295.98 274.86 312.36 274.86 315.63 256.29 315.63 256.29 311.81 265.57 310.72 209.34 279.05 209.34 273.6 214.8 273.6"/><path d="M542.38,362.06s-2.06-40.61-46.06-61.7l2.5,9.27L495.11,311l-8.86-16.29,2.92-2.64,19.33-.78.53,4.63-9.41,1.58s46.46,25.72,46.93,57.5l-.5,7.05Z"/><text class="cls-1" transform="translate(84.61 339.41)">me</text><text class="cls-1" transform="translate(44 274.76)">huge l<tspan class="cls-2" x="84.36" y="0">ad</tspan><tspan x="114.32" y="0">d</tspan><tspan class="cls-3" x="130.88" y="0">e</tspan><tspan x="147.08" y="0">r</tspan></text><text class="cls-1" transform="translate(514.61 402.41)">barn</text><text class="cls-1" transform="translate(513.75 518.51)"><tspan xml:space="preserve"> 0%</tspan></text><path d="M479.63,181.06c-2.18-2.55,0-21.11,0-21.11l-2.18-36.76H422.86l-49.5-2.55s-59-2.18-60.05-2.18-28.39-1.82-28.39-1.82H237.61l.72,24.38-3.64,65.15v59l4.74.73,3.64-1.82,236.2,3.64,4-2.19,1.46-7.64v-7.64C484.73,248.75,481.82,183.61,479.63,181.06Zm-69.51,80.43L240.52,256l4-131.38h46.22l49.5,2.18,46.95,1.82,46.22,1.46h38.94l2.19,40.76,2.91,90.62Z"/><path d="M468.71,300.43V267.68l-5.81-.1.72,30.31v105.9l1.45,10.92v38.94H252.89V407.8l1.82-2.91-1.82-137.21v-3.49l-4.36-.07V462.75l39.3,1.82H314.4s45.13-3.64,47-3.64,25.47.73,25.47.73h54.6l29.48-.73V316.45Z"/><polygon points="306.33 288.06 309.6 288.06 315.06 365.94 318.7 436.55 318.7 443.46 320.88 443.46 320.88 464.21 315.42 464.21 308.51 308.07 306.33 288.06"/><polygon points="280.85 290.24 284.49 290.24 286.67 381.95 286.67 388.5 288.13 464.21 283.03 462.75 282.67 368.35 280.85 302.98 280.85 290.24"/><polygon points="284.49 312.8 308.72 312.8 308.72 310.26 301.59 310.26 284.96 310.26 284.49 312.8"/><polygon points="285.3 324.08 296.6 324.08 309.22 324.08 310.38 329.42 290.68 326.63 284.49 326.63 285.3 324.08"/><polygon points="285.82 346.29 299.41 346.29 302.69 346.29 310.2 346.29 310.38 350.3 285.87 348.3 285.82 346.29"/><polygon points="286.26 364.85 311.02 364.85 311.18 368.35 300.69 368.35 290.86 368.35 286.35 368.35 286.26 364.85"/><polygon points="286.67 386.14 311.93 385.24 311.93 388.87 286.67 388.5 286.67 386.14"/><polygon points="286.96 403.61 312.74 403.61 312.82 405.43 287 405.43 286.96 403.61"/><polygon points="286.96 429.63 313.85 428.74 313.85 431.63 298.1 431.63 287.52 432.36 286.96 429.63"/><path d="M194.45,442.61l-.19-6.92,4.73-4,3.28-5.64-7.64-9.65-2.66-1,.47-3.74,2.37-1.09,1.64-3.23-.91-5.32-2-2.37h-2.92l-2.36,1.28-1.64,2.9-.45,3,2,4,1.54.82-.21,3.73-1.79,1.46-3.45,8.46v4.55l6.73,6.19-.73,8.37-5.09,10.73v2.48l2,.62,1-2.8,2.57-6.28,2-6,3.69,5.62,2.36,4.18,2.55,5.28h2l1.64-1.09Zm-6.28-11.92-2.1-2.82v-3.19l2.64-5.91,1,.73.64,13.37Zm5.37-11.56,2,1.37a28.22,28.22,0,0,0,2.18,3.09,10.12,10.12,0,0,1,1.09,2.23s-1.27,3.32-1.45,3.6-1.55,2.18-1.55,2.18L194,433.51Z"/><path d="M100.46,346.07s11.87,38.9,59.68,48.65l-4.68-8.38,3.27-2.19,12.56,13.65-2.18,3.28-18.56,5.45-1.64-4.36,8.73-3.82S106.33,384.7,98.14,354l-1.23-7Z"/><polygon points="214.8 273.6 266.12 305.81 263.39 296.52 266.12 295.98 274.86 312.36 274.86 315.63 256.29 315.63 256.29 311.81 265.57 310.72 209.34 279.05 209.34 273.6 214.8 273.6"/><path d="M542.38,362.06s-2.06-40.61-46.06-61.7l2.5,9.27L495.11,311l-8.86-16.29,2.92-2.64,19.33-.78.53,4.63-9.41,1.58s46.46,25.72,46.93,57.5l-.5,7.05Z"/><text class="cls-1" transform="translate(84.61 339.41)">me</text><text class="cls-1" transform="translate(44 274.76)">huge l<tspan class="cls-2" x="84.36" y="0">ad</tspan><tspan x="114.32" y="0">d</tspan><tspan class="cls-3" x="130.88" y="0">e</tspan><tspan x="147.08" y="0">r</tspan></text><text class="cls-1" transform="translate(514.61 402.41)">barn</text><text class="cls-1" transform="translate(513.75 518.51)"><tspan xml:space="preserve"> 0%</tspan></text></g><g id="Layer_2" data-name="Layer 2"><rect class="cls-4" x="248" y="502" width="222" height="10"/><polygon class="cls-4" points="271.82 264.12 271.82 276.41 273.64 297.16 273.64 300.07 273.64 355.39 273.64 453.65 276.91 453.65 276.91 344.83 276.91 305.89 276.91 287.69 276.91 264.6 271.82 264.12"/><polygon class="cls-4" points="309.67 265.06 311.85 295.34 311.85 329.55 310.96 399.42 310.76 415.08 310.76 453.65 311.85 453.65 314.04 351.75 314.04 321.54 313.12 270.59 314.04 265.06 309.67 265.06"/><polygon class="cls-4" points="331.54 453.65 331.54 441.36 329.71 420.62 329.71 417.71 329.71 362.39 329.71 264.12 326.44 264.12 326.44 372.94 326.44 411.88 326.44 430.08 326.44 453.18 331.54 453.65"/><path class="cls-4" d="M363.08,264.59V284l1.36,9.56V453.65h3s.55-38.94,0-39.76-2.06-29.2-2.06-29.2,2.28-96.36,2.31-97.45,0-22.18,0-22.18Z"/><polygon class="cls-4" points="378.37 266.21 378.37 353.84 377 369.67 378.37 453.65 380.82 453.65 380.82 266.21 378.37 266.21"/><polygon class="cls-4" points="347.88 454.23 345.7 423.96 345.7 389.75 346.59 319.88 346.79 304.22 346.79 265.64 345.7 265.64 343.52 367.55 343.52 397.75 344.43 448.71 343.52 454.23 347.88 454.23"/><polygon class="cls-4" points="397.48 454.23 395.3 423.96 395.3 389.75 396.19 319.88 396.39 304.22 396.39 265.64 395.3 265.64 393.12 367.55 393.12 397.75 394.03 448.71 393.12 454.23 397.48 454.23"/><polygon class="cls-4" points="410.1 265.64 412.28 295.91 412.28 330.12 411.39 399.99 411.19 415.65 411.19 454.23 412.28 454.23 414.46 352.32 414.46 322.12 413.55 271.16 414.46 265.64 410.1 265.64"/><polygon class="cls-4" points="432.68 454.23 430.5 423.96 430.5 389.75 431.39 319.88 431.59 304.22 431.59 265.64 430.5 265.64 428.31 367.55 428.31 397.75 429.23 448.71 428.31 454.23 432.68 454.23"/><polygon class="cls-4" points="447.14 453.65 447.14 366.03 448.51 350.2 447.14 266.21 444.69 266.21 444.69 453.65 447.14 453.65"/></g></svg>