<svg id="Layer_1" data-name="Layer 1" xmlns="http://www.w3.org/2000/svg" viewBox="0 0 650 600"><defs><style>.cls-1{fill:#010101;}</style></defs><title>Artboard 3</title><path class="cls-1" d="M232.31,288.88l-12.86,12.38-8.76,12.2-4.06,9.64-2.34,16.45-3.23,14,5.07,31.08,7.77,16.23,15.8,30.42,12.6,14.19,3,5.08,5.15-13.61,13.58-9.82,13.8-.57s-14.63-26.5-21-41.92c-3.06-7.37-1.7-11.78-1.69-11.83.33-1.36,2.37-29.41,2.37-29.41l.58-6.8-4.3,1.05-.34,4.74-3,32.78-1,6.77,22.34,40.45-5.27-.4-8.11,2.79-5.24,5.16-4.73,2.36-3,5.07-2,2.37h0l-3.49-5.6-7.51-10.63-7.16-16.44-14.72-23.82-2.14-12.66.88-20.28L214,327.83l3.26-9.29,3.31-9.13,6.52-6.09,13.1-11.13,18.46-7.41-6-7.32Z"/><path class="cls-1" d="M356.1,277.46l27.49,4.38,11.46,5.88,7.09,7,6.47,3.72,4.05,4.73,9.51,14.27,5.7,14.81,4.74,20.57,1.4,13.57-3.26,14-2.54,10.15-6.08,16.51-3,8.13L406.5,425.75l-9.88,3.74-.1-3.46-1.6-2.67-9.54-11.74V397.13l1.76-6.09,1-5.49,4.67-14.28,2.23-7.27-7.31-2.3,3.09,5.51-5.43,16.63-1,5.11.68,2-3,2.88-2.14,2,5.45,1.32-2.83,13.39,10.42,16,3.45,6.1,1.54,9.11,4.54-6.52c1.7,0,7.15-3.06,7.15-3.06l11.58-12.27,7.49-12.85L434,388.68l5.36-17.92-.68-18-3.9-19.6-8.45-18.5-14.69-21-9.26-6c-.9-.62-6.3-5.53-7.34-5.88l-4.22-2.08-7.59-3.31-8.1-1-15.49-4.68Z"/><path class="cls-1" d="M395.08,424.68l-5.23-7.78-3.39-1.69-3.91-4.69L381.11,414l-1.42,5.57-.87,4.46H368.38l-7.87-3.28L356.38,422l-3.06,4.61L351,435.41l1.69,8.83,4.09,5.79,6.05,5.63,9.71,2s9.36-.34,10.73,0,9.14-4.81,9.14-4.81L398,441.75l-3.89-.17-1.18,5.24-3.72,3.38-4.91,2.37H370.7l-7.56-1.36-3.78-3-1.8-5.92-.5-8.13,5.91-7.75,4.27,1.85,3.69-.3,4-.27h6.28l4.15-7.88,4.8,4.23,3.05,9,.84,8.57,3.89.17Z"/><polygon class="cls-1" points="387.77 361.71 385.38 348.45 388.67 341.6 391.14 349.13 392.82 356.25 395.05 364 387.77 361.71"/><path class="cls-1" d="M368.23,251l-.08-27.26-2-4.1s-19.59-2.33-30.35-15.94l-4.57-1.63s-18-1.08-19.59-17.26l-3.43-1.41s-7.3,17.65-23.22,21.41c0,0-25.06,12.14-47.67,12,0,0-5.2,8.27-5,15.54,0,0,1.87,5.76,5.25,20.38L243.7,266s19.1,27.84,39.94,37.68c0,0,23.14,11,56.48-8.35C340.15,295.24,367.9,272.18,368.23,251ZM292,299.12,283.08,296l-28-21.86-6-8.91a20.72,20.72,0,0,1-3.4-8l-6.25-12.13-3.53-13.17L240,220.51s52-3.45,69.54-29.63c0,0,3.27,13.25,22.57,15.1,0,0,15.38,15.6,31.28,17.65l1.4,24.76s0,11.66-11.29,25.23l-13.22,16.91S318,307,292,299.12Z"/><path class="cls-1" d="M339.16,175.11s7.09,12,13.43,16.55l16.64,13s10.24,8,7.94,15.28l2.43,16.27s-1.13,8.08,8.65,12.71c0,0,3.46,4.43,1.47,11.95,0,0-1.21,15.93,10.32,18.88l2.1-2.68-7.28-7.85,1.24-7.67-.21-9.69L384.43,240l-2.86-27.82-5.36-8.09-27.1-21.19-6.28-7.45Z"/><polygon class="cls-1" points="367.8 255.36 371.56 265.3 381.03 275.31 379.36 277.46 370.41 270.46 366.5 265.25 366.36 260.77 367.8 255.36"/><path class="cls-1" d="M356.1,162.84l13.39,10.47,10.13,11.39,17.45,13.64,8.22,9,1.6,16.4,3.71,13.7,6.57,12,9.93,7.77,6.91-5-3.68-.17-4.89-.36-7.52-5.88-2.92-14-5.19-18.82-1.56-9.45-7.2-8.65s-10.19-9.69-12.08-9.44-15.72-13.07-15.72-13.07l-11-8.61Z"/><polygon class="cls-1" points="214.02 238.68 216.09 229.51 214.02 203.55 217.77 182.7 233.84 159.37 243.94 148.68 256.48 142.04 267.6 137.76 284.01 135.03 289.72 136.03 301.53 145.26 317.61 141.84 339.93 143.71 359 146.96 370.49 153.34 378.54 161.8 386.12 174.22 390.86 183.1 391.14 186.53 385.44 184.49 382.15 175.43 376.02 165.01 370.03 157.74 358.02 150.94 343.18 148.95 333.57 147.4 319.42 146.71 305.82 148.62 300.46 150.48 285.17 138.53 267.17 142.18 252.19 148.63 245.69 153.06 227.57 173.49 221.08 187.87 217.48 204.09 220.59 238.17 217.28 245.09 208.16 255.36 202.41 255.36 210.52 246.07 214.02 238.68"/><polygon class="cls-1" points="229.71 215.04 228.1 227.44 229.71 246.07 225.15 254.14 219.45 266.41 212.89 266.41 217.62 257.22 223.7 246.07 225.15 236.9 225.15 222.37 227.11 209.46 229.89 196.5 236.48 191.96 245.82 187.76 259.66 183.87 270.02 178.91 277.82 172.13 284.42 166.04 288.85 163.68 290.22 166.36 280.17 177 266.48 186.62 256.89 189.06 242.84 193.22 234.86 197.35 231.01 205.58 229.71 215.04"/><polygon class="cls-1" points="271.96 152.09 268.85 153.87 258.08 157.13 244.75 169.2 226.29 192.82 222.82 206.1 223.34 214.29 219.45 218.16 219.78 201.14 225.49 188.3 242.28 166.83 255.13 154.82 263.02 151.92 269.02 149.79 271.96 152.09"/><polygon class="cls-1" points="302.62 260.28 301.58 261.62 304.26 265.23 310.27 266.26 312.64 263.23 310.83 261.81 309.53 263.48 307.25 263.9 305.24 262.33 302.62 260.28"/><polygon class="cls-1" points="297.71 283.31 303.34 287.72 311.02 287.45 316.51 283.31 314.9 282.06 311.34 284.13 308.32 284.26 305.8 285 298.86 281.84 297.71 283.31"/><path class="cls-1" d="M283.63,243.64s.85,3.05,3.08,2.41c0,0,2.1.37,2.09-2.68"/><path class="cls-1" d="M325,242.05s.87,3,3.09,2.41c0,0,2.09.36,2.1-2.69"/><polygon class="cls-1" points="360.9 453.89 359.37 459.49 359.37 475.72 368.24 464.56 370.11 457.2 368.24 456.81 366.61 462.3 362.04 467.86 360.77 460.76 362.8 455.66 360.9 453.89"/><polyline class="cls-1" points="371.22 416.19 370.07 415.21 368.72 411.32 369.73 408.45 373.73 407.05"/><path class="cls-1" d="M277.87,426.54l8.37,3.54,2.28,11.67-2.79,12.17-11.41,6.59s-11.66,1.52-12.42,1.77-9.38-3-9.38-3l-7.18-8.7,1.15-3,7,7.18,8.87,2,11.41-2.53,8.62-3.63,2-11.33-1-6.59-10.14-6.08"/><polyline class="cls-1" points="273.67 418.77 320.46 418.77 370.07 415.21 370.07 418.77 312.35 421.21 274.98 421.21"/><polyline class="cls-1" points="387.9 455.68 393.99 491.18 402.39 521.61 402.39 529.97 399.82 528.7 399.31 521.86 391.7 490.93 386.63 472.68 383.24 457.71"/><polygon class="cls-1" points="397.96 524.9 386.89 527.44 365.08 528.7 347.34 529.97 302.46 527.44 292.83 524.9 271.03 526.17 259.37 523.38 247.45 523.38 239.47 519.83 230.47 519.83 231.73 516.79 234.01 515.01 235.53 495.24 241.62 472.42 243.56 447.58 246.94 450.54 243.9 473.94 238.07 498.28 237.82 513.75 243.14 517.3 257.08 520.09 285.99 521.86 303.73 521.35 314.21 522.87 344.55 525.41 373.73 524.39 397.96 522.11 397.96 524.9"/><polyline class="cls-1" points="378.82 423.98 376.89 423.98 383.24 398.65 379.94 397.63 378.27 397.63 370.11 423.98 368.39 426.54 377 395.1 385.38 397.13 377.91 426.54"/><circle class="cls-1" cx="286.44" cy="243.33" r="2.81"/><circle class="cls-1" cx="327.6" cy="242.61" r="2.59"/><polygon class="cls-1" points="236.87 249.83 235.93 260.28 232.31 264.62 225.15 270.76 227.76 273.41 236.87 266.26 239.47 256.87 236.87 249.83"/><path class="cls-1" d="M320,234.87l5-1.69h5.19l4.05,3.38a10.7,10.7,0,0,1,0-3.38c.34-1-6.64-2.7-6.64-2.7h-3.5l-2.76,1.59Z"/><polygon class="cls-1" points="292.66 235.21 288.8 233.52 284.38 234.37 280.83 236.56 280.83 233.52 284.55 232 289.25 232 292.66 235.21"/><path class="cls-1" d="M269,484.15l27.64,21.63,40-13.52S362.71,472,362.49,472s-28.95-18.25-28.95-18.25l-20-19.61-29.23,18.26-32.54,6.08,47.33,14.2,20,46s13-10.31,13.14-11.16-.79-40.73-.79-40.73L329,468.26l.85,37.69-6.26,5.41-3.21,1.18L307.11,487l-6.36-17.74-26.2-6.43L261.7,458.8l14.88-2.88,13.52-1.52,5.57-7.26,16.4-8.29,6.93,3.89,11.49,11,6.42,5.74,10.15,5.58,10,5.41L353,476.38l-9.8,8.11-8.62,4.73-8.11,2.54-3.22,2.7-16.11,3.38-6.2,3.72L291.45,498l-15.21-11.16Z"/><polygon class="cls-1" points="345.2 432.86 321.88 451.79 309.43 451.79 272.86 468.36 272.29 469.25 264.2 481.88 273.54 496.75 295.85 482.21 320.52 480.19 326.95 464.81 361.09 492.69 361.09 486.95 342.83 473.09 331.34 464.81 326.61 461.26 321.88 464.81 321.88 470.05 316.81 476.13 302.87 478.5 290.44 478.83 280.97 488.64 273.54 488.64 268.81 480.52 277.26 470.05 291.45 467 305.65 457.54 317.82 455.85 328.97 452.81 345.2 432.86"/><polygon class="cls-1" points="306.22 470.65 300.81 497.01 332.58 517.97 360.3 472.51 337.65 433.46 334.95 438.54 339.68 442.25 347.38 457.46 353.94 470.31 349.82 483.15 344.08 494.99 335.63 507.15 330.56 510.54 322.1 506.82 310.95 500.06 305.2 490.25 308.71 470.65 306.22 470.65"/></svg>