<svg id="Layer_3" data-name="Layer 3" xmlns="http://www.w3.org/2000/svg" xmlns:xlink="http://www.w3.org/1999/xlink" viewBox="0 0 400 500"><defs><style>.cls-1{fill:none;}.cls-2{clip-path:url(#clip-path);}</style><clipPath id="clip-path"><path class="cls-1" d="M140.64,447.52A193.72,193.72,0,0,1,7.23,263.44c0-106.93,86.69-193.62,193.63-193.62s193.62,86.69,193.62,193.62A193.7,193.7,0,0,1,261.09,447.51s-12.59.1-14.55-11.15v-62.1s-1.95-22.5-13.2-26.9c0,0,69.93-1,82.15-57.7,0,0,20.54-54.77-15.65-89,0,0,14.19-25.43-.48-50.86,0,0-24.46,1.47-52.33,21.52-54.28-17.12-95.18,0-95.18,0-27.88-20-52.33-21.52-52.33-21.52C84.85,175.23,99,200.66,99,200.66c-36.18,34.23-15.65,89-15.65,89,12.23,56.72,82.16,57.7,82.16,57.7-11.25,4.4-13.2,26.9-13.2,26.9-11.74,8.8-43.53,9.78-50.86-7.34s-22-26.4-33.74-28.36-9.78,5.87-4.4,8.8,16.13,8.8,25.91,34.72,63.09,18.58,63.09,18.58v35.7c-2,11.25-11.7,11.15-11.7,11.15Z"/></clipPath></defs><title>Artboard 1</title><g class="cls-2"><image width="4288" height="2848" transform="translate(7.1 65.2) scale(0.23)" xlink:href="../../extend/real-stars-background-the-fainter-stars-stand-4.jpeg"/></g></svg>