<?xml version="1.0" encoding="utf-8"?>
<!-- Generator: Adobe Illustrator 23.0.1, SVG Export Plug-In . SVG Version: 6.00 Build 0)  -->
<svg version="1.1" xmlns="http://www.w3.org/2000/svg" xmlns:xlink="http://www.w3.org/1999/xlink" x="0px" y="0px"
	 viewBox="0 0 400 500" style="enable-background:new 0 0 400 500;" xml:space="preserve">
<style type="text/css">
	.st0{display:none;}
	.st1{display:inline;}
</style>
<g id="Layer_1" class="st0">
	
		<image style="display:inline;overflow:visible;" width="474" height="474" xlink:href="github2.jpg"  transform="matrix(0.8118 0 0 0.8118 7.0986 65.2006)">
	</image>
</g>
<g id="Layer_3">
	<g>
		<defs>
			<path id="SVGID_1_" d="M140.6,447.5C63.2,422.2,7.2,349.4,7.2,263.4c0-106.9,86.7-193.6,193.6-193.6s193.6,86.7,193.6,193.6
				c0,85.9-55.9,158.7-133.4,184.1c0,0-12.6,0.1-14.5-11.2v-62.1c0,0-2-22.5-13.2-26.9c0,0,69.9-1,82.2-57.7c0,0,20.5-54.8-15.6-89
				c0,0,14.2-25.4-0.5-50.9c0,0-24.5,1.5-52.3,21.5c-54.3-17.1-95.2,0-95.2,0c-27.9-20-52.3-21.5-52.3-21.5
				c-14.7,25.4-0.5,50.9-0.5,50.9c-36.2,34.2-15.6,89-15.6,89c12.2,56.7,82.2,57.7,82.2,57.7c-11.2,4.4-13.2,26.9-13.2,26.9
				c-11.7,8.8-43.5,9.8-50.9-7.3s-22-26.4-33.7-28.4s-9.8,5.9-4.4,8.8c5.4,2.9,16.1,8.8,25.9,34.7s63.1,18.6,63.1,18.6v35.7
				C150.4,447.6,140.6,447.5,140.6,447.5L140.6,447.5z"/>
		</defs>
		<clipPath id="SVGID_2_">
			<use xlink:href="#SVGID_1_"  style="overflow:visible;"/>
		</clipPath>
		<g transform="matrix(1 0 0 1 0 0)" style="clip-path:url(#SVGID_2_);">
			
				<image style="overflow:visible;" width="4288" height="2848" xlink:href="../../extend/real-stars-background-the-fainter-stars-stand-4.jpeg"  transform="matrix(0.2315 0 0 0.2315 7.0986 65.2006)">
			</image>
		</g>
	</g>
</g>
<g id="Layer_3_copy" class="st0">
	<g class="st1">
		<path d="M200.9,74.8c25.5,0,50.2,5,73.4,14.8c22.5,9.5,42.6,23.1,60,40.4c17.3,17.3,30.9,37.5,40.4,60c9.8,23.3,14.8,48,14.8,73.4
			c0,40.6-12.7,79.2-36.7,111.8c-11.6,15.7-25.4,29.4-41.1,40.9c-15.7,11.4-32.9,20.3-51.3,26.4c-2.1-0.2-7.6-1.1-8.8-6.6v-61.6
			c0-0.1,0-0.3,0-0.4c-0.2-1.8-1.4-13.7-6.8-22.5c7.1-1,16.8-3,26.9-6.9c26.4-10.2,43.2-28.6,48.7-53.4c0.9-2.4,5.3-15.7,5.9-32.9
			c0.8-23.6-6.2-43.7-20.4-58.6c3.6-8.3,10.6-30.2-2.2-52.3c-0.9-1.6-2.6-2.5-4.3-2.5c-0.1,0-0.2,0-0.3,0c-1,0.1-25,1.7-52.9,21
			c-15.7-4.7-31.8-7.1-47.9-7.1c-23,0-39.5,4.9-45.7,7c-27.8-19.2-51.7-20.8-52.8-20.9c-0.1,0-0.2,0-0.3,0c-1.8,0-3.4,0.9-4.3,2.5
			c-12.8,22.2-5.8,44-2.2,52.3c-14.1,14.8-21.2,35-20.4,58.6c0.6,17.2,5.1,30.5,5.9,32.9c5.4,24.8,22.3,43.2,48.7,53.4
			c10.1,3.9,19.8,5.9,26.9,6.9c-4.2,6.9-5.9,15.7-6.5,20c-4.4,2.5-11.4,4.1-18.5,4.1c-9,0-19.8-2.8-23.1-10.5
			c-8.5-19.9-25.5-29.3-37.5-31.3c-1.5-0.3-2.9-0.4-4.2-0.4c-7.8,0-9.7,4.9-10,6.3c-1.1,4.3,1.7,9.5,6.6,12.2
			c5.1,2.8,14.5,7.9,23.6,32.1c7.1,18.8,31.9,22.8,51.4,22.8c4.5,0,8.4-0.2,11.3-0.4v29.7c-1.1,5.2-4.4,6.3-6.1,6.6
			c-18.3-6.1-35.5-15-51.2-26.3c-15.7-11.4-29.6-25.2-41.1-40.9c-24-32.6-36.7-71.2-36.7-111.8c0-25.5,5-50.2,14.8-73.4
			c9.5-22.5,23.1-42.6,40.4-60c17.3-17.3,37.5-30.9,60-40.4C150.7,79.8,175.4,74.8,200.9,74.8 M200.9,69.8
			C93.9,69.8,7.2,156.5,7.2,263.4c0,85.9,56,158.8,133.4,184.1l0,0c0,0,0,0,0,0c0.3,0,9.8-0.1,11.7-11.1v-35.7c0,0-7,1-16.3,1
			c-16.5,0-40.5-3-46.8-19.5c-9.8-25.9-20.5-31.8-25.9-34.7c-4.8-2.6-6.9-9.1,1-9.1c1,0,2.1,0.1,3.4,0.3c11.7,2,26.4,11.2,33.7,28.4
			c4.1,9.6,16,13.5,27.7,13.5c9.1,0,18-2.4,23.2-6.2c0,0,2-22.5,13.2-26.9c0,0-69.9-1-82.2-57.7c0,0-20.5-54.8,15.6-89
			c0,0-14.2-25.4,0.5-50.9c0,0,24.5,1.5,52.3,21.5c0,0,18.2-7.6,46.4-7.6c14.1,0,30.7,1.9,48.8,7.6c27.9-20,52.3-21.5,52.3-21.5
			c14.7,25.4,0.5,50.9,0.5,50.9c36.2,34.2,15.6,89,15.6,89c-12.2,56.7-82.2,57.7-82.2,57.7c11.2,4.4,13.2,26.9,13.2,26.9v62.1
			c1.9,11.1,14.1,11.2,14.5,11.2c0,0,0,0,0,0c77.4-25.3,133.4-98.2,133.4-184.1C394.5,156.5,307.8,69.8,200.9,69.8L200.9,69.8z"/>
	</g>
</g>
</svg>
